<svg width="20" height="24" viewBox="0 0 20 24" fill="none" xmlns="http://www.w3.org/2000/svg">
<path d="M1.3483 8.752C2.6675 7.43275 4.2352 7.46925 5.9392 8.4037L12.3102 4.87244L11.9496 2.39331L17.6065 8.05015L15.133 7.69525L11.5961 14.0606C12.4878 15.8793 12.567 17.3322 11.2478 18.6515C11.2478 18.6515 9.11765 16.5213 7.3587 14.7624L-0.77832 20.7781L5.21925 12.6229C3.46025 10.8639 1.3483 8.752 1.3483 8.752Z" fill="#00995D"/>
<path fill-rule="evenodd" clip-rule="evenodd" d="M11.6134 1.72293C11.9022 1.57804 12.2514 1.63448 12.4799 1.863L18.1368 7.51984C18.3651 7.74817 18.4217 8.09701 18.2772 8.38578C18.1327 8.67455 17.8196 8.83842 17.4999 8.79256L15.5377 8.51102L12.4377 14.09C12.8103 14.9281 13.0367 15.7581 13.0003 16.5767C12.9572 17.5438 12.5519 18.408 11.7782 19.1818C11.6375 19.3225 11.4467 19.4015 11.2478 19.4015C11.0489 19.4015 10.8581 19.3225 10.7175 19.1818L7.28515 15.7495L-0.332452 21.3812C-0.630715 21.6017 -1.04537 21.5711 -1.30798 21.3091C-1.57059 21.0472 -1.60227 20.6326 -1.38251 20.3338L4.23333 12.6977L0.818369 9.28273C0.52548 8.98984 0.52509 8.51459 0.817973 8.2217C1.59466 7.44498 2.48691 7.03303 3.46154 6.98369C4.28793 6.94185 5.11703 7.16331 5.92615 7.55345L11.4934 4.46767L11.2074 2.50127C11.1609 2.18146 11.3245 1.86783 11.6134 1.72293ZM2.46923 8.81227L5.74959 12.0926C6.01162 12.3547 6.04301 12.7688 5.82346 13.0673L2.76531 17.2256L6.91285 14.1593C7.2114 13.9386 7.62651 13.9696 7.88904 14.2321L11.1889 17.5319C11.3941 17.1924 11.4864 16.8557 11.5018 16.51C11.5274 15.9346 11.3435 15.2492 10.9226 14.3908C10.8146 14.1703 10.8212 13.9109 10.9405 13.6963L14.4774 7.33099C14.6284 7.05912 14.9316 6.9087 15.2395 6.95287L15.4835 6.98788L13.017 4.52137L13.0524 4.76452C13.0972 5.07311 12.9465 5.37726 12.6738 5.52844L6.3028 9.05969C6.07767 9.18447 5.80428 9.18509 5.57859 9.06133C4.80103 8.63492 4.12292 8.45212 3.53739 8.48177C3.17613 8.50006 2.82053 8.60044 2.46923 8.81227Z" fill="#00995D"/>
</svg>
